<svg width="19" height="17" viewBox="0 0 19 17" fill="none" xmlns="http://www.w3.org/2000/svg">
<path d="M18.1485 8.86457C18.5123 8.57178 18.7455 8.12286 18.7455 7.6206C18.7455 6.74043 18.0295 6.02436 17.1493 6.02436H11.4833C11.6594 5.64036 11.8627 5.05541 11.9789 4.24227C12.2488 2.35279 11.8409 1.34985 11.4512 0.841207C11.1214 0.410707 10.6783 0.150363 10.1699 0.0883945C9.74092 0.035707 9.34918 0.376441 9.33775 0.80741C9.27179 1.48494 9.03053 3.34368 8.68497 4.03489C7.7972 5.81043 5.68061 6.869 5.02689 7.16188C4.79814 6.96528 4.50105 6.84608 4.17648 6.84608H1.3127C0.592139 6.84608 0.00592041 7.43225 0.00592041 8.15286V15.3121C0.00592041 16.0327 0.592139 16.6189 1.3127 16.6189H4.17639C4.56194 16.6189 4.90895 16.451 5.1483 16.1845C5.52006 16.4192 6.12006 16.6807 6.94867 16.6807H16.1541C17.0343 16.6807 17.7503 15.9646 17.7503 15.0845C17.7503 14.6811 17.5998 14.312 17.3521 14.0307C17.8821 13.7708 18.2478 13.2255 18.2478 12.5965C18.2478 12.193 18.0974 11.8241 17.8496 11.5427C18.3797 11.2828 18.7454 10.7375 18.7454 10.1085C18.7455 9.60627 18.5123 9.15735 18.1485 8.86457ZM4.17639 15.9144H1.3127C0.980592 15.9144 0.710405 15.6442 0.710405 15.3121V8.15282C0.710405 7.82071 0.980592 7.55052 1.3127 7.55052H4.17639C4.34458 7.55052 4.49669 7.61999 4.60605 7.73155V15.5869C4.60605 15.629 4.61369 15.6703 4.62812 15.7092C4.51764 15.8346 4.35634 15.9144 4.17639 15.9144ZM15.6693 9.21678H17.1495C17.6412 9.21678 18.0412 9.61686 18.0412 10.1085C18.0412 10.6001 17.6411 11.0002 17.1495 11.0002H15.6693C15.4748 11.0002 15.3171 11.1579 15.3171 11.3525C15.3171 11.547 15.4748 11.7047 15.6693 11.7047H16.6518C17.1436 11.7047 17.5435 12.1048 17.5435 12.5964C17.5435 13.088 17.1435 13.4881 16.6518 13.4881H15.3993C15.2048 13.4881 15.047 13.6458 15.047 13.8404C15.047 14.035 15.2048 14.1927 15.3993 14.1927H16.1542C16.6459 14.1927 17.0459 14.5927 17.0459 15.0844C17.0459 15.5761 16.6459 15.9761 16.1542 15.9761H6.94876C6.22173 15.9761 5.72884 15.7325 5.46123 15.5497C5.47548 15.4725 5.48331 15.3932 5.48331 15.312V8.15282C5.48331 8.0151 5.46175 7.88239 5.42209 7.75771C6.24747 7.37891 8.36055 6.25893 9.31506 4.34994C9.79248 3.39514 10.0305 0.963738 10.0404 0.860707C10.0414 0.849551 10.042 0.838254 10.042 0.827051C10.042 0.815051 10.0466 0.804832 10.0556 0.796863C10.0683 0.785754 10.0805 0.78716 10.0846 0.787676C10.3051 0.814582 10.6241 0.920051 10.892 1.26964C11.1996 1.67108 11.5168 2.49538 11.2815 4.14266C11.082 5.53893 10.6091 6.14975 10.6061 6.15355C10.4215 6.37921 10.5878 6.72889 10.8787 6.72889H17.1494C17.6411 6.72889 18.0411 7.12897 18.0411 7.62064C18.0411 8.11236 17.6411 8.51235 17.1494 8.51235H15.6693C15.4748 8.51235 15.317 8.67003 15.317 8.86461C15.317 9.05919 15.4748 9.21678 15.6693 9.21678Z" fill="#2FB8A6"/>
</svg>
