<svg width="24" height="24" viewBox="0 0 24 24" fill="none" xmlns="http://www.w3.org/2000/svg">
<path d="M20.25 15.3281H3.75C1.68225 15.3281 0 17.0104 0 19.0781C0 21.1459 1.68225 22.8281 3.75 22.8281H20.25C22.3177 22.8281 24 21.1459 24 19.0781C24 17.0104 22.3177 15.3281 20.25 15.3281ZM4.96875 20.25C4.32155 20.25 3.79688 19.7253 3.79688 19.0781C3.79688 18.4309 4.32155 17.9062 4.96875 17.9062C5.61595 17.9062 6.14062 18.4309 6.14062 19.0781C6.14062 19.7253 5.61595 20.25 4.96875 20.25ZM9.65625 20.25C9.00905 20.25 8.48438 19.7253 8.48438 19.0781C8.48438 18.4309 9.00905 17.9062 9.65625 17.9062C10.3035 17.9062 10.8281 18.4309 10.8281 19.0781C10.8281 19.7253 10.3035 20.25 9.65625 20.25ZM14.3438 20.25C13.6965 20.25 13.1719 19.7253 13.1719 19.0781C13.1719 18.4309 13.6965 17.9062 14.3438 17.9062C14.991 17.9062 15.5156 18.4309 15.5156 19.0781C15.5156 19.7253 14.991 20.25 14.3438 20.25ZM19.0312 20.25C18.384 20.25 17.8594 19.7253 17.8594 19.0781C17.8594 18.4309 18.384 17.9062 19.0312 17.9062C19.6785 17.9062 20.2031 18.4309 20.2031 19.0781C20.2031 19.7253 19.6785 20.25 19.0312 20.25Z" fill="#2FB8A6"/>
<path d="M16.4531 5.95312H15.5156V4.6875C15.5156 2.74898 13.9385 1.17188 12 1.17188C10.0615 1.17188 8.48438 2.74898 8.48438 4.6875V5.95312H7.54688C7.15856 5.95312 6.84375 6.26794 6.84375 6.65625V12.2344C6.84375 12.6227 7.15856 12.9375 7.54688 12.9375H16.4531C16.8414 12.9375 17.1562 12.6227 17.1562 12.2344V6.65625C17.1562 6.26794 16.8414 5.95312 16.4531 5.95312ZM12.7031 9.66225V9.9375C12.7031 10.3258 12.3883 10.6406 12 10.6406C11.6117 10.6406 11.2969 10.3258 11.2969 9.9375V9.66225C11.024 9.56564 10.8281 9.306 10.8281 9C10.8281 8.61169 11.1429 8.29688 11.5312 8.29688H12.4688C12.8571 8.29688 13.1719 8.61169 13.1719 9C13.1719 9.306 12.976 9.56564 12.7031 9.66225ZM14.1094 5.95312H9.89062V4.6875C9.89062 3.52439 10.8369 2.57812 12 2.57812C13.1631 2.57812 14.1094 3.52439 14.1094 4.6875V5.95312Z" fill="#2FB8A6"/>
</svg>
