<svg width="24" height="24" viewBox="0 0 24 24" fill="none" xmlns="http://www.w3.org/2000/svg">
<g clip-path="url(#clip0_463_38)">
<path d="M20.4853 3.51471C18.2188 1.24823 15.2053 0 12 0C9.11462 0 6.32629 1.03876 4.14844 2.92511C3.99957 3.05402 3.98346 3.27924 4.11237 3.42792C4.24127 3.57678 4.46631 3.5929 4.61517 3.46399C6.66339 1.68988 9.28601 0.71283 12 0.71283C15.0148 0.71283 17.8493 1.8869 19.9812 4.0188C22.1131 6.1507 23.2872 8.98517 23.2872 12C23.2872 15.0148 22.1131 17.8493 19.9812 19.9812C17.8493 22.1131 15.0148 23.2872 12 23.2872C8.98517 23.2872 6.1507 22.1131 4.0188 19.9812C1.8869 17.8493 0.71283 15.0148 0.71283 12C0.71283 9.19574 1.74792 6.50739 3.62769 4.43042C3.7597 4.28448 3.74835 4.05908 3.60242 3.92688C3.45648 3.79486 3.23108 3.80603 3.09906 3.95215C1.10065 6.1604 0 9.01849 0 12C0 15.2053 1.24823 18.2188 3.51471 20.4853C5.78119 22.7518 8.79474 24 12 24C15.2053 24 18.2188 22.7518 20.4853 20.4853C22.7518 18.2188 24 15.2053 24 12C24 8.79474 22.7518 5.78119 20.4853 3.51471Z" fill="#2FB8A6"/>
<path d="M11.5468 16.2715C10.4462 16.2715 9.5506 17.1768 9.5506 18.2893C9.5506 19.4019 10.4462 20.3071 11.5468 20.3071C12.0872 20.3071 12.596 20.0922 12.9796 19.7016C13.3513 19.3231 13.5646 18.8084 13.5646 18.2893C13.5646 17.7559 13.3531 17.2507 12.9694 16.8668C12.5854 16.483 12.0802 16.2715 11.5468 16.2715ZM11.5468 19.5943C10.8391 19.5943 10.2634 19.0089 10.2634 18.2893C10.2634 17.5697 10.8391 16.9843 11.5468 16.9843C12.2542 16.9843 12.8516 17.582 12.8516 18.2893C12.8516 18.9966 12.2542 19.5943 11.5468 19.5943Z" fill="#2FB8A6"/>
<path d="M14.9815 10.705C15.13 10.8347 15.355 10.8193 15.4845 10.671C16.3434 9.68695 16.7791 8.6568 16.7791 7.60925C16.7791 6.50458 16.2828 5.50317 15.382 4.78961C14.4763 4.07239 13.2473 3.69336 11.8275 3.69336C10.0712 3.69336 8.9848 4.28625 8.38293 4.78357C7.65509 5.38489 7.2204 6.19128 7.2204 6.94055C7.2204 7.42761 7.4198 7.85663 7.78198 8.14868C8.08008 8.3891 8.47705 8.52698 8.87146 8.52698C9.55096 8.52698 9.84888 8.08771 10.0882 7.73468C10.3914 7.28772 10.6776 6.86548 11.7625 6.86548C12.1344 6.86548 13.3478 6.94568 13.3478 7.9762C13.3478 8.75403 12.6288 9.30609 11.9943 9.79315C11.8376 9.91327 11.6896 10.027 11.5516 10.1442C10.821 10.7739 9.98218 11.7465 9.98218 13.6938C9.98218 14.7755 10.2446 15.496 11.5254 15.496C12.0927 15.496 12.5209 15.3674 12.7983 15.114C13.0312 14.9012 13.1545 14.6041 13.1545 14.2545C13.1545 13.2039 13.1545 12.6765 14.226 11.8384L14.2443 11.8242C14.2916 11.7874 14.3461 11.7447 14.4062 11.6962C14.5594 11.5726 14.5834 11.3483 14.4598 11.195C14.3362 11.0417 14.1119 11.0178 13.9587 11.1414C13.9017 11.1873 13.8503 11.2274 13.8058 11.2622L13.7869 11.2769C12.5041 12.2803 12.4417 13.025 12.4417 14.2547C12.4417 14.4127 12.4417 14.7831 11.5254 14.7831C11.0779 14.7831 10.9417 14.6896 10.873 14.6079C10.7532 14.4656 10.695 14.1666 10.695 13.6938C10.695 12.0457 11.3633 11.2476 12.0148 10.686C12.1377 10.5818 12.2789 10.4734 12.4285 10.3586C13.1556 9.80029 14.0609 9.10541 14.0609 7.9762C14.0609 6.86841 13.1587 6.15265 11.7625 6.15265C10.2999 6.15265 9.83661 6.83582 9.49823 7.33459C9.26697 7.67572 9.1615 7.81415 8.87146 7.81415C8.49445 7.81415 7.93341 7.58142 7.93341 6.94055C7.93341 6.52435 8.17072 5.88348 8.83704 5.33307C9.349 4.91028 10.2832 4.40601 11.8277 4.40601C14.3234 4.40601 16.0662 5.72327 16.0662 7.60925C16.0662 8.47937 15.6899 9.35168 14.9476 10.2022C14.818 10.3505 14.8334 10.5756 14.9815 10.705Z" fill="#2FB8A6"/>
</g>
<defs>
<clipPath id="clip0_463_38">
<rect width="24" height="24" fill="white"/>
</clipPath>
</defs>
</svg>
