<svg width="24" height="24" viewBox="0 0 24 24" fill="none" xmlns="http://www.w3.org/2000/svg">
<g clip-path="url(#clip0_93_1068)">
<path d="M8.31006 4.62402H4.11365C3.72528 4.62402 3.41052 4.93878 3.41052 5.32715C3.41052 5.71552 3.72528 6.03027 4.11365 6.03027H8.31006C8.69824 6.03027 9.01318 5.71552 9.01318 5.32715C9.01318 4.93878 8.69824 4.62402 8.31006 4.62402Z" fill="#2FB8A6"/>
<path d="M8.31006 7.43652H4.11365C3.72528 7.43652 3.41052 7.75128 3.41052 8.13965C3.41052 8.52802 3.72528 8.84277 4.11365 8.84277H8.31006C8.69824 8.84277 9.01318 8.52802 9.01318 8.13965C9.01318 7.75128 8.69824 7.43652 8.31006 7.43652Z" fill="#2FB8A6"/>
<path d="M8.31006 10.249H4.11365C3.72528 10.249 3.41052 10.5638 3.41052 10.9521C3.41052 11.3405 3.72528 11.6553 4.11365 11.6553H8.31006C8.69824 11.6553 9.01318 11.3405 9.01318 10.9521C9.01318 10.5638 8.69824 10.249 8.31006 10.249Z" fill="#2FB8A6"/>
<path d="M8.31006 13.0615H4.11365C3.72528 13.0615 3.41052 13.3763 3.41052 13.7646C3.41052 14.153 3.72528 14.4678 4.11365 14.4678H8.31006C8.69824 14.4678 9.01318 14.153 9.01318 13.7646C9.01318 13.3763 8.69824 13.0615 8.31006 13.0615Z" fill="#2FB8A6"/>
<path d="M8.31006 15.9219H4.11365C3.72528 15.9219 3.41052 16.2368 3.41052 16.625C3.41052 17.0134 3.72528 17.3281 4.11365 17.3281H8.31006C8.69824 17.3281 9.01318 17.0134 9.01318 16.625C9.01318 16.2368 8.69824 15.9219 8.31006 15.9219Z" fill="#2FB8A6"/>
<path d="M10.6714 6.03027H14.8678C15.2562 6.03027 15.5709 5.71552 15.5709 5.32715C15.5709 4.93878 15.2562 4.62402 14.8678 4.62402H10.6714C10.2832 4.62402 9.96826 4.93878 9.96826 5.32715C9.96826 5.71552 10.2832 6.03027 10.6714 6.03027Z" fill="#2FB8A6"/>
<path d="M10.6714 8.84277H14.8678C15.2562 8.84277 15.5709 8.52802 15.5709 8.13965C15.5709 7.75128 15.2562 7.43652 14.8678 7.43652H10.6714C10.2832 7.43652 9.96826 7.75128 9.96826 8.13965C9.96826 8.52802 10.2832 8.84277 10.6714 8.84277Z" fill="#2FB8A6"/>
<path d="M13.3956 10.9521C13.3956 10.5638 13.0809 10.249 12.6925 10.249H10.6714C10.2832 10.249 9.96826 10.5638 9.96826 10.9521C9.96826 11.3405 10.2832 11.6553 10.6714 11.6553H12.6925C13.0809 11.6553 13.3956 11.3405 13.3956 10.9521Z" fill="#2FB8A6"/>
<path d="M20.0565 16.2182C19.7536 15.9752 19.3112 16.0237 19.0681 16.3266L17.2572 18.5843L16.136 17.772C15.8216 17.544 15.3818 17.6144 15.154 17.9288C14.9262 18.2433 14.9965 18.683 15.3109 18.9107L16.9741 20.1158C17.0986 20.2059 17.2429 20.2496 17.3862 20.2496C17.5926 20.2496 17.7966 20.159 17.935 19.9863L20.165 17.2066C20.408 16.9037 20.3595 16.4612 20.0565 16.2182Z" fill="#2FB8A6"/>
<path d="M21.8337 14.0598C20.9178 13.1277 19.741 12.5403 18.4658 12.3673V2.83173C18.4658 1.27039 17.1954 0 15.6341 0H3.34753C1.78601 0 0.515625 1.27039 0.515625 2.83173V19.1195C0.515625 20.681 1.78601 21.9514 3.34735 21.9514H13.2294C14.3414 23.2577 15.9402 24 17.67 24C20.89 24 23.5095 21.3787 23.5095 18.1566C23.5095 16.6141 22.9144 15.1591 21.8337 14.0598ZM1.92188 19.1195V2.83173C1.92188 2.04584 2.56146 1.40625 3.34753 1.40625H15.6341C16.4202 1.40625 17.0596 2.04584 17.0596 2.83173V12.345C14.1255 12.6513 11.8306 15.1406 11.8306 18.1566C11.8306 18.9924 12.0049 19.8007 12.3393 20.545H3.34753C2.56146 20.545 1.92188 19.9056 1.92188 19.1195ZM17.67 22.5938C16.2658 22.5938 14.9749 21.949 14.1281 20.8251C13.545 20.0511 13.2367 19.1285 13.2367 18.1566C13.2367 15.7099 15.2256 13.7194 17.67 13.7194C17.6931 13.7194 17.7164 13.7197 17.7394 13.7201L17.7502 13.7203C18.9172 13.741 20.0112 14.2115 20.8308 15.0454C21.6513 15.8802 22.1032 16.9852 22.1032 18.1566C22.1032 20.6032 20.1145 22.5938 17.67 22.5938Z" fill="#2FB8A6"/>
</g>
<defs>
<clipPath id="clip0_93_1068">
<rect width="24" height="24" fill="white"/>
</clipPath>
</defs>
</svg>
